<?xml version="1.0" standalone="no"?>
<!DOCTYPE svg PUBLIC "-//W3C//DTD SVG 20010904//EN"
 "http://www.w3.org/TR/2001/REC-SVG-20010904/DTD/svg10.dtd">
<svg version="1.0" xmlns="http://www.w3.org/2000/svg"
 width="300.000000pt" height="300.000000pt" viewBox="0 0 300.000000 300.000000"
 preserveAspectRatio="xMidYMid meet">
<metadata>
Created by potrace 1.10, written by Peter Selinger 2001-2011
</metadata>
<g transform="translate(0.000000,300.000000) scale(0.100000,-0.100000)"
fill="#000000" stroke="none">
<path d="M1697 2869 c-21 -5 -92 -16 -159 -24 -96 -12 -130 -20 -167 -42 -44
-26 -45 -27 -21 -33 14 -4 27 -3 30 0 10 14 77 29 195 45 188 26 223 28 252
17 16 -6 45 -13 66 -17 42 -7 52 -24 10 -18 -16 2 -1 -6 32 -17 84 -29 116
-45 145 -73 14 -12 43 -30 65 -39 131 -53 176 -79 170 -97 -7 -25 26 -59 144
-145 18 -14 40 -34 47 -45 13 -18 12 -23 -7 -42 -12 -12 -17 -24 -13 -28 5 -3
18 -24 29 -46 10 -22 24 -46 29 -54 6 -7 16 -30 23 -49 11 -33 10 -39 -7 -57
-13 -14 -20 -35 -20 -62 0 -24 -6 -46 -15 -53 -8 -7 -15 -23 -15 -35 0 -12 -8
-33 -18 -46 -10 -13 -31 -51 -48 -84 l-29 -60 -3 92 c-2 67 -7 94 -18 104 -14
11 -15 -1 -12 -118 2 -72 -1 -129 -5 -126 -5 3 -17 24 -27 47 -10 22 -25 50
-35 61 -16 19 -16 19 -4 -5 11 -24 11 -24 -7 -8 -16 13 -36 15 -123 12 -71 -3
-112 -9 -128 -19 -12 -8 -26 -16 -30 -16 -15 -1 -32 -21 -68 -74 -28 -43 -35
-63 -35 -102 0 -48 13 -170 26 -250 l6 -41 -62 -48 c-34 -27 -57 -50 -51 -52
6 -2 38 11 72 29 l61 33 -5 45 c-3 26 -13 105 -23 178 -16 123 -17 133 -1 157
20 29 51 51 87 60 25 6 25 6 -4 -16 -64 -51 -72 -58 -53 -52 20 7 24 -15 5
-34 -9 -9 -9 -12 1 -12 7 0 20 8 29 17 16 16 17 15 20 -13 4 -32 18 -54 35
-54 7 0 7 4 -1 12 -17 17 -15 58 2 58 8 0 13 -7 12 -16 -2 -25 24 -29 31 -5 6
23 18 27 29 10 3 -6 -3 -24 -15 -40 -24 -32 -14 -40 12 -11 10 10 17 31 17 45
0 32 5 33 48 7 37 -23 40 -42 12 -70 -38 -38 -152 -20 -207 32 -18 17 -23 18
-23 6 0 -35 97 -78 174 -78 34 0 48 8 85 42 l44 42 -37 32 c-59 51 -156 67
-241 39 -15 -5 -12 0 10 20 27 24 36 26 92 22 52 -4 71 -11 115 -42 l53 -37
-42 41 c-32 30 -54 41 -88 47 -78 11 -37 27 58 22 61 -3 93 -10 113 -23 16
-11 34 -20 39 -20 12 -1 13 4 -15 -115 -88 -379 -137 -528 -205 -618 -53 -70
-255 -290 -285 -310 -37 -25 -184 -22 -276 7 -59 18 -85 35 -179 114 -60 50
-153 135 -205 187 l-96 95 -22 120 c-12 66 -22 132 -22 146 0 43 -29 127 -56
158 -20 24 -23 34 -15 50 6 11 11 33 11 50 0 39 -62 144 -101 172 -29 20 -32
21 -47 4 -16 -16 -16 -17 6 -10 28 8 28 -1 -3 -75 -34 -80 -31 -98 5 -29 42
82 53 87 81 42 32 -52 33 -53 16 -53 -22 0 -77 -67 -77 -95 0 -33 44 -82 100
-110 53 -27 60 -38 60 -97 0 -40 -1 -40 -30 -35 -55 11 -76 36 -139 159 -62
121 -63 123 -59 193 4 71 33 148 68 180 14 12 22 7 77 -46 57 -55 83 -101 83
-145 0 -6 7 -35 16 -64 l16 -54 15 27 c7 15 18 25 23 22 6 -4 10 34 11 97 1
184 8 211 65 270 27 28 43 48 37 44 -25 -14 -12 11 22 44 29 28 35 41 35 74
l0 41 -20 -25 c-13 -17 -15 -27 -7 -32 7 -4 2 -16 -17 -35 -45 -45 -116 -150
-127 -185 -5 -18 -12 -77 -16 -130 -3 -54 -10 -98 -14 -98 -4 0 -15 24 -23 54
-13 44 -27 64 -76 109 -36 34 -71 57 -87 59 -27 3 -28 6 -40 88 -7 47 -15 132
-17 190 -3 93 0 111 21 157 12 28 23 60 23 70 1 35 55 129 98 167 23 21 42 46
42 56 0 12 10 21 30 25 16 4 39 20 51 36 12 17 30 29 42 29 13 0 47 24 81 55
33 30 65 56 73 56 7 1 17 2 21 3 12 2 96 75 91 80 -2 2 -34 -7 -71 -21 -73
-27 -148 -86 -176 -137 -15 -27 -17 -29 -20 -10 -2 11 4 41 12 65 8 24 14 45
12 47 -9 8 -68 -87 -79 -125 -10 -40 -14 -43 -44 -43 -35 0 -106 -31 -119 -51
-5 -9 6 -11 40 -7 54 6 59 -2 12 -24 -39 -19 -106 -76 -106 -90 0 -5 10 -6 23
-3 17 6 11 -5 -25 -42 -51 -52 -61 -70 -28 -53 25 13 25 15 -6 -51 -33 -68
-56 -131 -49 -137 2 -3 12 1 22 9 15 12 16 12 10 -3 -5 -15 -19 -65 -33 -123
-5 -20 -5 -20 10 -1 15 19 16 18 16 -15 0 -19 5 -85 10 -147 7 -88 6 -119 -5
-145 -7 -17 -16 -67 -20 -109 l-7 -77 56 -115 c31 -63 70 -129 87 -147 28 -30
32 -42 40 -133 11 -110 8 -126 -18 -126 -10 0 -41 -11 -70 -24 -40 -19 -57
-35 -79 -73 -121 -211 -138 -236 -189 -268 -91 -59 -219 -123 -330 -168 -151
-61 -275 -124 -275 -141 0 -10 42 5 137 49 76 34 184 82 240 105 56 23 135 61
175 86 40 24 76 44 80 44 4 0 1 -19 -7 -41 -8 -23 -15 -47 -14 -53 0 -6 6 3
12 19 l11 30 7 -25 c6 -20 7 -17 8 18 1 34 15 67 69 160 38 64 81 138 96 165
17 30 40 54 64 66 50 25 82 34 82 23 0 -5 -10 -14 -22 -20 -22 -10 -22 -11 -2
-11 20 -1 20 -4 12 -63 -16 -116 -39 -170 -51 -120 -2 9 -3 -1 0 -23 5 -54 32
-136 91 -285 119 -298 142 -360 142 -384 0 -14 4 -26 9 -26 5 0 16 -19 23 -42
11 -32 20 -44 38 -46 19 -3 22 -1 13 10 -13 15 -54 120 -49 125 1 2 23 -8 47
-21 61 -34 178 -78 198 -73 9 1 -9 11 -39 21 -78 27 -163 71 -204 106 -28 25
-46 61 -95 187 -34 86 -60 157 -58 159 2 2 25 -14 51 -36 148 -123 401 -230
541 -230 44 0 115 18 176 44 26 11 49 -27 61 -100 11 -70 28 -109 28 -63 0 47
-29 143 -46 156 -17 12 -15 16 23 56 51 53 58 73 37 105 -14 21 -15 33 -4 84
6 33 9 62 6 65 -12 12 -54 -124 -71 -230 -5 -34 -12 -41 -49 -58 -24 -10 -74
-24 -113 -31 -60 -10 -80 -9 -144 6 -157 39 -365 147 -473 247 -54 50 -64 65
-82 126 -19 67 -19 70 -2 138 10 39 25 138 33 220 24 234 27 238 76 108 55
-144 240 -406 403 -568 82 -82 111 -104 154 -119 l52 -18 38 28 c70 54 115 99
148 149 57 87 108 138 131 131 21 -7 106 -114 145 -183 21 -37 38 -49 134 -96
60 -30 125 -61 144 -70 19 -8 70 -31 113 -51 53 -24 76 -39 71 -47 -4 -7 -3
-9 4 -5 5 3 12 2 14 -2 1 -5 41 -23 88 -42 47 -18 96 -43 110 -55 14 -11 37
-27 51 -34 15 -7 37 -26 48 -42 12 -16 27 -29 34 -29 7 0 23 -9 35 -20 l22
-21 0 29 c0 66 -212 198 -540 338 -63 27 -152 69 -198 95 -72 40 -89 55 -126
110 -24 35 -64 88 -90 116 l-48 53 74 80 c94 104 131 164 164 264 15 45 30 86
34 91 3 6 15 33 25 60 10 28 33 80 51 117 25 50 36 88 42 150 5 46 22 119 37
163 15 44 30 87 33 95 4 11 6 10 10 -5 11 -51 22 -34 22 35 l0 75 26 -42 c24
-41 55 -63 36 -25 -5 9 -12 51 -15 92 l-6 75 29 -60 30 -60 0 51 c0 28 -7 73
-15 100 -26 85 -15 87 45 7 23 -32 40 -49 36 -38 -3 11 -13 47 -21 80 -21 80
-63 171 -103 223 -31 41 -32 43 -10 37 27 -9 63 -28 98 -53 l24 -17 -19 34
c-34 58 -102 126 -187 188 -46 33 -92 63 -103 68 -18 8 -16 9 10 12 73 8 141
43 82 43 -65 0 -357 117 -357 143 0 5 9 7 20 4 11 -3 22 -2 25 2 2 5 -20 14
-51 20 -30 7 -100 32 -156 57 -103 45 -137 50 -211 33z m551 -1076 c35 -4 56
-12 62 -23 8 -15 5 -16 -33 -9 -68 13 -151 11 -173 -6 -21 -16 -60 -20 -68 -6
-9 14 37 39 80 44 70 7 78 7 132 0z m-1288 -278 c0 -18 3 -40 6 -49 9 -23 -22
-20 -46 4 -29 29 -34 64 -14 95 l18 27 18 -22 c10 -12 18 -37 18 -55z m1401
-39 c-11 -46 -51 -140 -56 -134 -5 5 21 113 42 171 14 39 19 46 21 28 2 -13
-1 -42 -7 -65z m-977 -731 c132 -110 199 -135 373 -138 l82 -2 -32 -34 c-56
-59 -128 -111 -153 -111 -31 0 -89 30 -130 67 -74 67 -256 293 -236 293 4 0
47 -34 96 -75z m491 -333 c-2 -9 -4 -20 -4 -24 -1 -5 -5 -8 -11 -8 -11 0 -14
43 -4 53 11 11 22 -2 19 -21z"/>
<path d="M1560 2232 c0 -5 23 -21 51 -37 l51 -27 -18 27 c-22 33 -84 60 -84
37z"/>
<path d="M1381 2204 c21 -22 131 -94 145 -94 2 0 -6 16 -18 35 -13 19 -30 35
-39 35 -9 0 -33 11 -53 25 -48 32 -66 32 -35 -1z"/>
<path d="M1640 2225 c0 -14 208 -150 217 -142 2 3 -8 25 -23 50 -23 37 -30 43
-39 31 -9 -13 -19 -9 -68 26 -51 35 -87 50 -87 35z"/>
<path d="M1341 2189 c-1 -40 -20 -63 -45 -53 -26 10 -19 -10 17 -44 50 -49 55
-42 30 43 -6 20 -5 20 16 1 30 -27 31 -18 5 39 l-23 50 0 -36z"/>
<path d="M1524 2207 c-3 -9 -10 -14 -15 -11 -5 3 -9 1 -9 -3 0 -10 73 -83 83
-83 7 0 -30 91 -43 104 -6 6 -12 3 -16 -7z"/>
<path d="M1866 2148 c27 -24 59 -53 71 -65 l23 -22 -1 22 c-2 51 -14 72 -41
72 -15 1 -35 9 -46 18 -10 9 -27 17 -37 17 -12 0 -3 -13 31 -42z"/>
<path d="M2135 2178 c5 -7 22 -31 40 -53 17 -22 49 -65 69 -95 26 -38 36 -47
33 -30 -3 14 -9 42 -13 63 -4 24 -11 36 -18 34 -7 -3 -28 13 -46 35 -35 41
-80 73 -65 46z"/>
<path d="M2010 2115 c35 -35 66 -62 68 -60 3 2 -1 17 -7 33 -11 26 -95 92
-117 92 -5 0 20 -29 56 -65z"/>
<path d="M2107 2144 c5 -13 2 -15 -15 -9 -38 11 -24 -13 31 -53 28 -22 53 -39
54 -38 6 5 -59 116 -67 116 -5 0 -7 -7 -3 -16z"/>
<path d="M2283 2085 c23 -82 66 -183 71 -169 15 39 -12 119 -58 169 -18 20
-19 20 -13 0z"/>
<path d="M1364 1929 c-33 -16 -68 -39 -79 -50 -20 -19 -20 -19 15 -14 l35 5
-34 -11 c-49 -15 -34 -19 26 -6 65 13 313 -12 313 -32 0 -3 -36 -6 -81 -7 -70
-1 -207 -30 -195 -41 2 -3 28 3 57 11 29 9 87 16 130 16 l77 0 36 -40 c43 -48
45 -44 10 16 -31 52 -19 57 49 22 46 -23 87 -31 87 -17 0 5 -7 26 -16 47 -19
49 -36 57 -198 92 -93 21 -135 26 -153 19 -33 -12 -67 -11 -35 1 12 5 22 12
22 15 0 8 -5 6 -66 -26z m241 -40 c100 -21 155 -43 162 -66 3 -9 -5 -9 -31 2
-19 8 -48 15 -64 15 -16 0 -45 6 -63 14 -19 7 -61 17 -94 21 -81 9 -106 15
-99 26 9 15 84 10 189 -12z"/>
<path d="M1804 1845 c13 -55 18 -64 32 -58 18 7 18 32 -1 57 -11 14 -15 16
-15 5 0 -12 -2 -12 -11 1 -8 12 -9 11 -5 -5z"/>
<path d="M1445 1763 c-41 -9 -125 -36 -125 -40 0 -3 12 -14 26 -25 14 -12 30
-31 35 -44 12 -33 50 -46 147 -49 69 -2 87 1 107 17 14 11 25 27 25 35 0 13
-5 12 -24 -6 -52 -49 -243 -34 -247 19 -1 11 -2 25 -3 32 -1 6 11 15 27 19 25
7 27 5 27 -25 0 -34 15 -56 39 -56 12 0 11 3 -2 18 -19 20 -22 48 -8 56 5 3
11 -1 15 -9 8 -22 33 -18 39 6 3 12 10 18 16 14 16 -9 13 -61 -4 -75 -9 -7
-13 -15 -10 -18 13 -13 45 33 45 65 0 44 19 43 67 -2 44 -41 53 -33 23 18 -16
27 -30 38 -53 41 -58 9 -142 14 -162 9z"/>
<path d="M1710 1290 c0 -5 25 -10 56 -10 34 0 53 4 49 10 -3 6 -28 10 -56 10
-27 0 -49 -4 -49 -10z"/>
<path d="M1466 1102 c-3 -6 16 -12 47 -16 95 -10 252 -18 247 -13 -3 3 -55 11
-115 17 -61 6 -124 13 -141 16 -18 3 -34 1 -38 -4z"/>
<path d="M1845 1054 c104 -20 114 -21 117 -9 2 6 -8 11 -22 12 -14 1 -59 4
-100 7 l-75 5 80 -15z"/>
<path d="M1655 962 c33 -15 185 -26 185 -13 0 6 -15 11 -32 11 -18 0 -64 2
-103 5 -46 4 -63 2 -50 -3z"/>
<path d="M711 492 c-3 -45 94 -215 158 -280 31 -30 145 -109 191 -131 24 -11
24 -11 5 4 -11 8 -55 38 -98 66 -109 71 -191 179 -243 319 -7 19 -13 29 -13
22z"/>
<path d="M503 399 c-29 -22 -53 -42 -53 -44 0 -7 99 65 106 76 8 14 3 11 -53
-32z"/>
<path d="M681 419 c-2 -33 73 -162 122 -213 54 -54 267 -208 267 -193 0 3 -39
31 -87 63 -49 32 -120 90 -159 129 -66 65 -78 84 -132 205 -7 16 -11 19 -11 9z"/>
<path d="M1946 354 c3 -22 10 -61 16 -87 14 -65 0 -95 -72 -152 -69 -53 -102
-69 -188 -85 -34 -7 -61 -15 -58 -17 8 -8 149 24 196 45 49 21 126 97 135 134
3 13 -1 60 -9 106 -14 85 -29 126 -20 56z"/>
<path d="M628 228 l-3 -63 -12 35 c-12 34 -13 33 -7 -20 3 -30 11 -80 18 -110
14 -55 14 -54 15 83 1 141 -6 186 -11 75z"/>
<path d="M1297 228 c-9 -37 -17 -75 -16 -85 0 -10 9 14 20 52 10 39 18 77 16
85 -2 8 -10 -15 -20 -52z"/>
<path d="M2350 224 c75 -76 180 -160 180 -144 0 13 -48 110 -55 110 -2 0 0
-12 5 -26 6 -14 10 -30 10 -35 0 -19 -62 27 -127 94 -36 37 -68 67 -71 67 -4
0 23 -30 58 -66z"/>
<path d="M135 231 c-55 -27 -109 -56 -120 -66 -11 -9 5 -3 35 13 30 17 89 46
130 65 41 20 71 36 65 36 -5 0 -55 -22 -110 -48z"/>
<path d="M1784 249 c2 -10 10 -45 17 -78 6 -34 16 -64 21 -67 6 -4 8 1 4 12
-3 11 -10 41 -16 68 -6 27 -15 56 -21 65 -9 14 -10 14 -5 0z"/>
<path d="M1476 213 c-3 -16 -8 -55 -10 -88 -7 -79 9 -32 18 53 7 63 2 84 -8
35z"/>
<path d="M1662 143 c8 -78 18 -109 18 -57 0 50 -12 134 -19 134 -4 0 -3 -35 1
-77z"/>
<path d="M2054 163 l-22 -44 24 22 c13 12 21 25 19 30 -3 4 -1 9 5 11 5 1 6 8
2 14 -4 6 -16 -8 -28 -33z"/>
<path d="M870 97 c0 -12 42 -98 47 -93 2 2 -7 26 -21 53 -14 26 -25 45 -26 40z"/>
<path d="M1904 40 c-13 -21 -20 -26 -26 -17 -6 9 -8 9 -8 -1 0 -13 27 -28 36
-20 6 7 24 68 19 68 -2 0 -12 -13 -21 -30z"/>
<path d="M1525 19 c22 -4 51 -8 65 -7 16 0 11 3 -15 9 -22 4 -51 8 -65 7 -16
0 -11 -3 15 -9z"/>
</g>
</svg>
